<svg width="50" height="50" viewBox="0 0 50 50" fill="none" xmlns="http://www.w3.org/2000/svg">
<g id="Vector">
<path d="M18.1146 6.90368C12.7429 12.2966 11.6139 20.3325 14.7228 26.8399L19.5251 22.018C18.7083 18.2783 19.7467 14.2118 22.6436 11.3018C25.2591 8.67651 28.8144 7.57335 32.2224 7.98582C34.3041 6.42489 36.5606 5.08718 38.9577 4.00666C32.3195 0.27013 23.7613 1.2358 18.1146 6.90368Z" fill="#F4714A"/>
<path d="M8.8849 20.407C8.8849 10.3733 15.9404 1.99767 25.3429 0C20.3998 0.517615 15.9356 2.64954 12.479 5.85875L10.9893 4.99175C8.22496 6.82281 5.85371 9.20384 4.02918 11.9779L6.25162 15.8244C5.92003 16.9163 5.66608 18.0421 5.50272 19.1986L0.494953 20.5331C0.169837 22.1296 0 23.7812 0 25.4731C0 27.1651 0.169837 28.8166 0.494953 30.4115L6.40366 31.9886C6.60747 32.5596 6.83877 33.1176 7.09433 33.6627L4.02918 38.9667C5.85371 41.7424 8.22496 44.1218 10.9893 45.9545L16.2736 42.8779C16.8171 43.1335 17.3735 43.3664 17.9429 43.5718L19.5118 49.5017C19.7415 49.5487 19.9728 49.5923 20.2041 49.6328C18.7678 45.8752 17.9413 41.8136 17.8491 37.5707C12.4321 33.8051 8.8849 27.5225 8.8849 20.407Z" fill="#377DAA"/>
<path d="M27.499 13.5567C27.127 13.8414 26.9119 14.2878 26.9232 14.7569L27.0526 20.7596C27.0655 21.3937 27.4861 21.9485 28.091 22.1313L33.8186 23.8621C34.2666 23.9979 34.7519 23.9106 35.1239 23.6259L42.3201 18.1343C42.7358 21.625 41.5777 25.2677 38.8441 27.9043C35.9796 30.6655 32.0054 31.6489 28.3514 30.8547L23.7772 35.4469C30.0935 38.0657 37.631 36.8008 42.7649 31.6473C49.5714 24.8148 49.5714 13.7378 42.7649 6.90371C41.6052 5.73908 40.3209 4.7734 38.9574 4.00669C36.5602 5.08721 34.3038 6.42492 32.2221 7.98585C32.9031 8.06834 33.5776 8.21069 34.2375 8.4145L27.499 13.5567Z" fill="#F1511B"/>
<path d="M29.3529 49.5018L30.6258 44.6961C31.8956 44.5311 33.1314 44.2577 34.3267 43.8873L37.8755 45.9545C40.6414 44.1218 43.0126 41.7424 44.8372 38.9667L44.1125 37.7164C47.3378 34.2386 49.481 29.737 50.0002 24.7501C48.0091 34.1885 39.6644 41.2717 29.6699 41.2717C25.2784 41.2717 21.2054 39.9032 17.8491 37.5707C17.9413 41.8136 18.7678 45.8752 20.2041 49.6328C21.579 49.8738 22.9913 50 24.4325 50C26.1179 50 27.7645 49.8285 29.3529 49.5018Z" fill="#03466E"/>
</g>
</svg>
